<?xml version="1.0" standalone="no"?>
<!DOCTYPE svg PUBLIC "-//W3C//DTD SVG 20010904//EN"
 "http://www.w3.org/TR/2001/REC-SVG-20010904/DTD/svg10.dtd">
<svg version="1.0" xmlns="http://www.w3.org/2000/svg"
 width="210.000000pt" height="210.000000pt" viewBox="0 0 210.000000 210.000000"
 preserveAspectRatio="xMidYMid meet">
<metadata>
Created by potrace 1.14, written by Peter Selinger 2001-2017
</metadata>
<g transform="translate(0.000000,210.000000) scale(0.100000,-0.100000)"
fill="#000000" stroke="none">
<path d="M700 1772 c-26 -9 -108 -93 -125 -128 -16 -34 -16 -96 0 -136 8 -20
58 -41 104 -44 48 -3 48 -3 35 -12 -23 -16 -83 -141 -98 -205 -14 -62 -14 -75
0 -150 9 -45 24 -98 34 -118 16 -34 16 -37 -2 -58 -24 -30 -42 -95 -34 -118 4
-10 6 -20 4 -23 -2 -2 -61 -4 -133 -5 l-130 0 -5 -30 c-4 -16 -3 -43 2 -60 4
-16 8 -33 8 -37 0 -5 -29 -8 -65 -8 -63 0 -75 -6 -55 -26 6 -6 12 -36 14 -67
3 -31 7 -65 10 -75 3 -9 7 -30 10 -46 5 -29 27 -60 58 -84 9 -7 23 -18 30 -26
35 -34 116 -48 311 -52 106 -2 197 -4 202 -4 6 0 118 3 250 5 132 3 263 7 290
10 28 3 102 10 165 15 63 6 129 15 145 22 89 34 131 106 129 218 -1 36 3 71 9
78 18 22 -2 27 -121 29 -64 1 -131 2 -149 2 -34 1 -28 -12 -73 153 -6 20 -18
44 -27 53 -18 18 -19 16 37 51 37 23 109 142 117 194 3 14 5 82 6 152 l2 128
28 0 c49 0 101 75 101 145 -1 56 -25 106 -65 131 -62 39 -162 60 -213 45 -54
-15 -58 -17 -80 -26 -18 -8 -119 18 -142 36 -10 8 -97 18 -184 21 -14 0 -51
-5 -83 -11 l-57 -12 -34 35 c-18 20 -42 37 -52 37 -62 5 -161 5 -174 1z"/>
<path d="M373 1460 c-51 -20 -47 -78 6 -100 42 -17 51 -5 18 24 -44 38 -32 58
31 48 41 -6 42 13 1 27 -18 6 -32 11 -33 10 -1 0 -11 -4 -23 -9z"/>
<path d="M307 1172 c-22 -24 -28 -68 -12 -82 17 -14 77 -9 83 8 2 8 -7 12 -27
12 -44 0 -47 16 -9 50 l32 30 -25 0 c-14 0 -33 -8 -42 -18z"/>
</g>
</svg>
